<svg class="animated" id="freepik_stories-alien-science" xmlns="http://www.w3.org/2000/svg" xmlns:xlink="http://www.w3.org/1999/xlink" viewBox="0 0 500 500" version="1.1" xmlns:svgjs="http://svgjs.com/svgjs"><style>svg#freepik_stories-alien-science:not(.animated) .animable {opacity: 0;}svg#freepik_stories-alien-science.animated #el6vc2m3rtbev {animation: 1s 1 forwards ease-in slideLeft;animation-delay: 0s;}svg#freepik_stories-alien-science.animated #elz39hei1cyv {animation: 1s 1 forwards ease-in slideLeft;animation-delay: 0.5s;opacity: 0}svg#freepik_stories-alien-science.animated #freepik--background-simple--inject-5 {animation: 1s 1 forwards ease-in slideLeft;animation-delay: 0s;}svg#freepik_stories-alien-science.animated #freepik--Holograms--inject-5 {animation: 1.5s Infinite  linear wind;animation-delay: 0s;}            @keyframes slideLeft {                0% {                    opacity: 0;                    transform: translateX(-30px);                }                100% {                    opacity: 1;                    transform: translateX(0);                }            }                    @keyframes wind {                0% {                    transform: rotate( 0deg );                }                25% {                    transform: rotate( 1deg );                }                75% {                    transform: rotate( -1deg );                }            }        </style><g id="freepik--background-simple--inject-5" class="animable animator-active" style="transform-origin: 248.539px 223.621px;"><path d="M346.83,73.46s-62.08-33.29-131.38-5.62-111.95,96.91-148,152.09-28.42,118,16.71,152.89,84.05-.67,153,7.7,86,21.07,148.46-9.51,85.55-121.52,50.1-196.72S346.83,73.46,346.83,73.46Z" style="fill: rgb(27, 235, 65); transform-origin: 248.539px 223.621px;" id="el6vc2m3rtbev" class="animable"></path><g id="elz39hei1cyv"><path d="M346.83,73.46s-62.08-33.29-131.38-5.62-111.95,96.91-148,152.09-28.42,118,16.71,152.89,84.05-.67,153,7.7,86,21.07,148.46-9.51,85.55-121.52,50.1-196.72S346.83,73.46,346.83,73.46Z" style="fill: rgb(255, 255, 255); opacity: 0.7; transform-origin: 248.539px 223.621px;" class="animable"></path></g></g><g id="freepik--Character--inject-5" class="animable" style="transform-origin: 266.081px 281.362px;"><path d="M392.62,239.2c-1.48-5.42-1-11.82-1.15-13.62s-2.79-4.11-5.58-1.48a84.17,84.17,0,0,1-6.56,5.41l-1.64-.49s.32-.82,1-2.79,3.45-6.07,5.25-9.19,3.45-4.76,4.76-8.37,2-6.89,1.15-8.53-1.81.82-2.95,3.28-4.44,6.57-7.06,10.18-6.4,9.35-8,12.14-2.79,4.76-2.63,11.16-2,18.22-3.28,24.62-8.7,20.67-13.62,28.06-9.68,29.05-9.68,29.05l-24.35-28c.42-4.09.48-9.63-1.75-13C312.7,271.85,302,272,287.59,265s-22-11.65-22-11.65h-9.35s-7.55,4.6-22,11.65-25.11,6.89-28.89,12.64-1,17.72-1,18.21-7.22,52.85-7.22,52.85l12.14,15.26,7.88-52.84s2,11.65,6.24,18.21a51.31,51.31,0,0,0,10.5,11.33V391h54V340.62a51.31,51.31,0,0,0,10.5-11.33c4.27-6.56,6.24-18.21,6.24-18.21l2.88-3.71c1.2,1.69,3.13,4.34,6.14,8.3,6.24,8.21,16.74,16.74,19.7,19.53s3.77,7.88,9.52,7.06,7.71-10,12.8-17.73,7.71-14.93,10-23.46,3.93-24.95,6.07-31.18,6.07-20.52,6.07-20.52a10.65,10.65,0,0,0,5.25-4.76c2-3.61,2.79-14,2.79-14s1,5.58,1.81,8.37,2.95,7.55,4.26,9,2.14,1.31,3.12.49S394.1,244.61,392.62,239.2Z" style="fill: rgb(38, 50, 56); stroke: rgb(38, 50, 56); stroke-linecap: round; stroke-linejoin: round; transform-origin: 296.219px 295.304px;" id="elphxwh7ypwtk" class="animable"></path><path d="M391.47,225.58c-.16-1.81-2.79-4.11-5.58-1.48a84.17,84.17,0,0,1-6.56,5.41l-1.64-.49s.32-.82,1-2.79,3.45-6.07,5.25-9.19,3.45-4.76,4.76-8.37,2-6.89,1.15-8.53-1.81.82-2.95,3.28-4.44,6.57-7.06,10.18-6.4,9.35-8,12.14-2.79,4.76-2.63,11.16-2,18.22-3.28,24.62-8.7,20.67-13.62,28.06a41.84,41.84,0,0,0-3.82,8.27,18.92,18.92,0,0,0,16.41,6.31q.44-1.52.87-3.09c2.29-8.54,3.93-24.95,6.07-31.18s6.07-20.52,6.07-20.52a10.65,10.65,0,0,0,5.25-4.76c2-3.61,2.79-14,2.79-14s1,5.58,1.81,8.37,2.95,7.55,4.26,9,2.14,1.31,3.12.49-1-3.94-2.46-9.35S391.63,227.38,391.47,225.58Z" style="fill: rgb(255, 255, 255); stroke: rgb(38, 50, 56); stroke-linecap: round; stroke-linejoin: round; transform-origin: 371.946px 251.948px;" id="elbl4k5e9yg6p" class="animable"></path><path d="M371.45,237.06s8.53-6.07,12.31-6.4,17.72.5,18.87.17,1,1.8-.16,3.44-3.94,1.48-6.9,1.32-11-.5-11-.5-7.39,12.31-12.15,13.13" style="fill: rgb(255, 255, 255); stroke: rgb(38, 50, 56); stroke-linecap: round; stroke-linejoin: round; transform-origin: 387.435px 239.4px;" id="ellhzv2lfa6lr" class="animable"></path><path d="M209.15,355.39s-.49-2.79-10.18-8.7-15.59-9.85-17.23-11.82a11.43,11.43,0,0,1-2.13-3.61s1.48-2.13,1-8-2.29-8.86-1.31-13.46,3.12-9.68,1.48-9.84-4.27.33-6.07,4.43-.33,8.37,0,10.17-3,9.52-3,9.52-.16.49-7.55-4.59-11.65-5.58-13.62-4.27-13.95,9-13.95,9-3.94,12.81-6.73,16.25.17,4.1,3.12,2.63,4.92-7.72,6.4-11.65a19.91,19.91,0,0,1,4.27-7.23c.82-.65,5.25-1.14,6.73-1.8a5.79,5.79,0,0,1,3.12-.33s5.9,5.58,7.54,9.52,3.12,7.71,5.42,8.7,5.74-.17,5.74-.17,12.31,11,16.25,15.43,4.92,6.56,10.34,9.35,8.37,4.93,10.34,1.32,1-8.21,1-8.21" style="fill: rgb(255, 255, 255); stroke: rgb(38, 50, 56); stroke-linecap: round; stroke-linejoin: round; transform-origin: 169.556px 334.039px;" id="elyhkjhlgblu" class="animable"></path><path d="M170.09,323.38a78.68,78.68,0,0,1-8.21-12.63c-3.61-7.06-4.92-8.37-6.56-8s-2.95.33-3.77,3-3,8.21-2.79,11.65,1,9,1,12,3.61,2.46,4.1,1.64.33-5.25.33-9.84v-5.42l1.31-4.27a25.68,25.68,0,0,1,4.27,8.21c1.31,4.59,2.46,6.56,3.45,6.73" style="fill: rgb(255, 255, 255); stroke: rgb(38, 50, 56); stroke-linecap: round; stroke-linejoin: round; transform-origin: 159.418px 317.188px;" id="elwq8vzbknq58" class="animable"></path><path d="M171.73,324a27.22,27.22,0,0,0-2.62,5.91c-.83,2.95,3.28,7.38,6.07,7.71" style="fill: rgb(255, 255, 255); stroke: rgb(38, 50, 56); stroke-linecap: round; stroke-linejoin: round; transform-origin: 172.091px 330.81px;" id="elud9m0ms1dvs" class="animable"></path><path d="M287.59,265c-14.44-7-22-11.65-22-11.65h-9.35s-7.55,4.6-22,11.65c-.85.41-1.67.8-2.49,1.16l25.32,24.74a6.87,6.87,0,0,0,10-.42l21.57-25Z" style="fill: rgb(255, 255, 255); transform-origin: 260.195px 273.104px;" id="elk5eg9zimmh" class="animable"></path><g style="clip-path: url(&quot;#freepik--clip-path-8--inject-5&quot;); transform-origin: 260.21px 262.015px;" id="elc7v2rsa6t6g" class="animable"><g id="elp1p6x9xkne"><path d="M265.6,253.31h-9.35s-7.55,4.6-22,11.65c-.85.41-1.67.8-2.49,1.16l2.78,2.71c5.8-2.76,15.47-7,21.45-7.92s19.44,5.37,28.14,9.81l4.53-5.25-1.08-.51C273.15,257.91,265.6,253.31,265.6,253.31Z" style="opacity: 0.3; transform-origin: 260.21px 262.015px;" class="animable"></path></g></g><path d="M287.59,265c-14.44-7-22-11.65-22-11.65h-9.35s-7.55,4.6-22,11.65c-.85.41-1.67.8-2.49,1.16l25.32,24.74a6.87,6.87,0,0,0,10-.42l21.57-25Z" style="fill: none; stroke: rgb(38, 50, 56); stroke-linecap: round; stroke-linejoin: round; transform-origin: 260.195px 273.104px;" id="elabmfy4rgsf" class="animable"></path><path d="M305.81,294.83c-3.29,3.45-4.6,11.32-10.34,13.95s-24.62,2.13-24.62,2.13-35.77,1.48-41.85-1.31-8.86-13.79-12.47-15.43-6.07,1.48-6.07,4.27-3.12,25.44-3.12,25.44,4.26,3.06,7.19,5.06l2.66-17.86s2,11.65,6.24,18.21a51.31,51.31,0,0,0,10.5,11.33v21.66h54V340.62a51.31,51.31,0,0,0,10.5-11.33c4.27-6.56,6.24-18.21,6.24-18.21l2.88-3.71c1.2,1.69,3.13,4.34,6.14,8.3a86.28,86.28,0,0,0,8.46,9.3l4.67-5.69S315.33,303.53,313,299.75,309.09,291.38,305.81,294.83Z" style="fill: rgb(255, 255, 255); transform-origin: 267.08px 327.946px;" id="eld94ik1rqw2k" class="animable"></path><g style="clip-path: url(&quot;#freepik--clip-path-9--inject-5&quot;); transform-origin: 268.025px 332.273px;" id="elkyw9yedsqsd" class="animable"><g id="el01qg3ei6wzfz"><g style="opacity: 0.3; transform-origin: 268.025px 332.273px;" class="animable"><path d="M294.6,314.51a.58.58,0,0,0-.21-.05C293.93,314.46,294.07,314.55,294.6,314.51Z" id="elhxdeqpyhsye" class="animable" style="transform-origin: 294.356px 314.49px;"></path><path d="M309,303.16c-1.93-3.31-4.41,3.31-8.27,7.72-2.55,2.92-5.1,3.54-6.13,3.63,1.51.46,5,5.65,3.65,9.6-1.38,4.13-9.92,10.47-13.23,13.23-2.36,2-1.78,16.65-1.25,24.94h4.15V340.62a51.31,51.31,0,0,0,10.5-11.33c4.27-6.56,6.24-18.21,6.24-18.21l2.88-3.71c1.2,1.69,3.13,4.34,6.14,8.3a86.28,86.28,0,0,0,8.46,9.3l1.92-2.34C320.58,318.32,310.59,305.88,309,303.16Z" id="el4jrx9q30fnb" class="animable" style="transform-origin: 303.678px 332.273px;"></path><path d="M239,362.28c-.46-7.43-1.4-22.79-1.4-24.67,0-2.48-6.61-7.71-11.85-14.33s-6.62-14.33-8.27-17.36-3,6.61-4.14,11.85c-.63,3-1.08,6.78-1.35,9.41l2.53,1.76,2.66-17.86s2,11.65,6.24,18.21a51.31,51.31,0,0,0,10.5,11.33v21.66Z" id="elq4qz3m450h" class="animable" style="transform-origin: 225.495px 333.812px;"></path></g></g></g><path d="M305.81,294.83c-3.29,3.45-4.6,11.32-10.34,13.95s-24.62,2.13-24.62,2.13-35.77,1.48-41.85-1.31-8.86-13.79-12.47-15.43-6.07,1.48-6.07,4.27-3.12,25.44-3.12,25.44,4.26,3.06,7.19,5.06l2.66-17.86s2,11.65,6.24,18.21a51.31,51.31,0,0,0,10.5,11.33v21.66h54V340.62a51.31,51.31,0,0,0,10.5-11.33c4.27-6.56,6.24-18.21,6.24-18.21l2.88-3.71c1.2,1.69,3.13,4.34,6.14,8.3a86.28,86.28,0,0,0,8.46,9.3l4.67-5.69S315.33,303.53,313,299.75,309.09,291.38,305.81,294.83Z" style="fill: none; stroke: rgb(38, 50, 56); stroke-linecap: round; stroke-linejoin: round; transform-origin: 267.08px 327.946px;" id="el00ks5wbld2sdt" class="animable"></path><path d="M275.61,310.94c-2.82,0-4.76,0-4.76,0s-11.21.46-22.15.38v51h26.91Z" style="fill: rgb(38, 50, 56); stroke: rgb(38, 50, 56); stroke-linecap: round; stroke-linejoin: round; transform-origin: 262.155px 336.63px;" id="elcf485212h3" class="animable"></path><g id="el2g45ghcl922"><path d="M222.93,299s2,3.37,8.75,6.06,21.52,2.69,23.54-.67-4.71-7.74-17.49-10.77S220.24,293.3,222.93,299Z" style="fill: rgb(255, 255, 255); opacity: 0.07; transform-origin: 238.887px 299.683px;" class="animable"></path></g><g id="ela13gmvylmr"><path d="M299.58,299s-2,3.37-8.75,6.06-21.52,2.69-23.54-.67,4.71-7.74,17.49-10.77S302.27,293.3,299.58,299Z" style="fill: rgb(255, 255, 255); opacity: 0.07; transform-origin: 283.623px 299.683px;" class="animable"></path></g><g id="elzh4hcbm1ww"><path d="M273.5,317.51s-2.92-4.71-11-5.38-12.64,7.06-12.64,11.1,6.48,3.7,12,3.7S279.34,328.28,273.5,317.51Z" style="fill: rgb(255, 255, 255); opacity: 0.07; transform-origin: 262.464px 319.537px;" class="animable"></path></g><path d="M243.94,220.49s7.55,7.06,8.86,14.28-1.31,21.66-.16,24.61,8.37,4.11,13.29,3.12,3.12-2.95,3.12-9.52.65-13.45.65-13.45a33,33,0,0,0-11.32-13.95C250.34,220.16,245.25,217.37,243.94,220.49Z" style="fill: rgb(204, 204, 204); stroke: rgb(38, 50, 56); stroke-linecap: round; stroke-linejoin: round; transform-origin: 256.82px 241.016px;" id="eltysnsjmrq3" class="animable"></path><path d="M252.86,247.48c-.36,5.35-.84,10.31-.22,11.9,1.14,3,8.37,4.11,13.29,3.12s3.12-2.95,3.12-9.52c0-1.43,0-2.86.08-4.25A24.05,24.05,0,0,1,252.86,247.48Z" style="fill: rgb(38, 50, 56); stroke: rgb(38, 50, 56); stroke-linecap: round; stroke-linejoin: round; transform-origin: 260.856px 255.166px;" id="elzjvq074ea3d" class="animable"></path><path d="M244.92,221.47a27.71,27.71,0,0,1-14.44-4.76c-6.73-4.75-4.27-27.73,3.28-35.44s21-11.82,33.48-8.21,17.89,18.05,18.87,21.34,2.79,4.1,2.47,6.23a14.22,14.22,0,0,1-1.15,3.78s.16,10.66-1,13.29-1.64,2.79-2.95,6.07-2,10.34-3.12,14.93-2.63,6.73-9,6.9-10,.82-14.27-7.06S252,223.44,244.92,221.47Z" style="fill: rgb(204, 204, 204); transform-origin: 257.585px 208.712px;" id="ela198qucb916" class="animable"></path><g style="clip-path: url(&quot;#freepik--clip-path-10--inject-5&quot;); transform-origin: 256.188px 208.197px;" id="elo1h7woncee" class="animable"><g id="elkx5be4awq2j"><path d="M250.23,196.6c6.37-4.78,15.93-2,21.11-2s7.17-2.79,12.74-1.6a15,15,0,0,1,1.74.49c-1.52-4.44-7-17.09-18.58-20.44-12.47-3.61-25.93.49-33.48,8.21s-10,30.69-3.28,35.44a27.71,27.71,0,0,0,14.44,4.76c7.06,2,7.88,9.19,12.15,17.07,1.83,3.39,3.55,5.19,5.41,6.14-.19-2.4-.7-5.43-.7-8.66,0-6.37-3.58-5.18-8.76-9.56s-2.39-8.36-4.78-13.54S243.86,201.38,250.23,196.6Z" style="opacity: 0.3; transform-origin: 256.188px 208.197px;" class="animable"></path></g></g><path d="M244.92,221.47a27.71,27.71,0,0,1-14.44-4.76c-6.73-4.75-4.27-27.73,3.28-35.44s21-11.82,33.48-8.21,17.89,18.05,18.87,21.34,2.79,4.1,2.47,6.23a14.22,14.22,0,0,1-1.15,3.78s.16,10.66-1,13.29-1.64,2.79-2.95,6.07-2,10.34-3.12,14.93-2.63,6.73-9,6.9-10,.82-14.27-7.06S252,223.44,244.92,221.47Z" style="fill: none; stroke: rgb(38, 50, 56); stroke-linecap: round; stroke-linejoin: round; transform-origin: 257.585px 208.712px;" id="elup9cd8iojz8" class="animable"></path><line x1="272.99" y1="231.32" x2="277.09" y2="231.32" style="fill: none; stroke: rgb(38, 50, 56); stroke-linecap: round; stroke-linejoin: round; transform-origin: 275.04px 231.32px;" id="elklhp8cp36y" class="animable"></line><line x1="274.95" y1="220.82" x2="273.64" y2="223.44" style="fill: none; stroke: rgb(38, 50, 56); stroke-linecap: round; stroke-linejoin: round; transform-origin: 274.295px 222.13px;" id="elqhufgbt57r" class="animable"></line><line x1="276.27" y1="220.82" x2="277.74" y2="223.28" style="fill: none; stroke: rgb(38, 50, 56); stroke-linecap: round; stroke-linejoin: round; transform-origin: 277.005px 222.05px;" id="elo86sszelyr" class="animable"></line><path d="M264.78,195.87s9-2.13,13.62-1.31" style="fill: none; stroke: rgb(38, 50, 56); stroke-linecap: round; stroke-linejoin: round; transform-origin: 271.59px 195.121px;" id="elbhze6kfpws8" class="animable"></path><path d="M267.57,193.25s5.58-1.48,9.19-1.15" style="fill: none; stroke: rgb(38, 50, 56); stroke-linecap: round; stroke-linejoin: round; transform-origin: 272.165px 192.651px;" id="elvwkdiktpv8k" class="animable"></path><path d="M272,216.22s-.66,4.27-3.61,6.24-5.25,1.31-5.25,1.31" style="fill: none; stroke: rgb(38, 50, 56); stroke-linecap: round; stroke-linejoin: round; transform-origin: 267.57px 220.048px;" id="elciullpq7biu" class="animable"></path><path d="M278.73,216.71a4.47,4.47,0,0,0,2.79,4.44" style="fill: none; stroke: rgb(38, 50, 56); stroke-linecap: round; stroke-linejoin: round; transform-origin: 280.12px 218.93px;" id="eljiualo0ex0e" class="animable"></path><path d="M268.77,219.47a5.74,5.74,0,0,0,3.29-7c-.81-2.73-2.22-6.22-4.49-8.22-4.1-3.61-10.83-2.46-13.95,2.46s-3.12,8.87,4.1,12.15A14,14,0,0,0,268.77,219.47Z" style="fill: rgb(38, 50, 56); stroke: rgb(38, 50, 56); stroke-linecap: round; stroke-linejoin: round; transform-origin: 261.976px 211.232px;" id="el2otz3djagq" class="animable"></path><path d="M262.14,209.61a2.16,2.16,0,1,1-2.15-2.16A2.15,2.15,0,0,1,262.14,209.61Z" style="fill: rgb(255, 255, 255); transform-origin: 259.98px 209.61px;" id="elk94tlq8ha6" class="animable"></path><circle cx="262.36" cy="214.56" r="1.08" style="fill: rgb(255, 255, 255); transform-origin: 262.36px 214.56px;" id="el5o3xvx0ckv7" class="animable"></circle><path d="M287.26,202.77s-1.64-1.65-4.76,1.31-5.08,10.34-3.77,12.63,6.24,2,9.68-1S289.07,204.24,287.26,202.77Z" style="fill: rgb(38, 50, 56); stroke: rgb(38, 50, 56); stroke-linecap: round; stroke-linejoin: round; transform-origin: 284.181px 210.267px;" id="elm5rxk7acsw" class="animable"></path><path d="M283.92,209.61a2.16,2.16,0,1,1-2.16-2.16A2.16,2.16,0,0,1,283.92,209.61Z" style="fill: rgb(255, 255, 255); transform-origin: 281.76px 209.61px;" id="elv1t3ewl3qo" class="animable"></path><circle cx="284.14" cy="214.56" r="1.08" style="fill: rgb(255, 255, 255); transform-origin: 284.14px 214.56px;" id="elr31lm17vg4i" class="animable"></circle></g><g id="freepik--Holograms--inject-5" class="animable" style="transform-origin: 261.646px 223.805px;"><path d="M156.46,253.38A32,32,0,0,1,100,266.75" style="fill: none; stroke: rgb(145, 145, 145); stroke-miterlimit: 10; transform-origin: 128.23px 266.152px;" id="elyt6d115lms" class="animable"></path><path d="M96.45,261.13a32,32,0,1,1,59.83-21.51,32.26,32.26,0,0,1,.85,7.45" style="fill: none; stroke: rgb(145, 145, 145); stroke-miterlimit: 10; transform-origin: 125.128px 238.029px;" id="eltelws0afal9" class="animable"></path><path d="M152.84,230.93c.35.61.68,1.23,1,1.87,11.79-1,19.72-.14,20.39,2.75,1.18,5-19.84,14.22-46.95,20.57s-50,7.42-51.2,2.41c-.67-2.9,6.05-7.19,17.06-11.52,0-.71,0-1.41.06-2.11C73,251.8,59.77,259.25,60.89,264c1.6,6.82,31.85,5.57,67.58-2.79s63.39-20.67,61.8-27.49C189.15,229,174,228.14,152.84,230.93Z" style="fill: none; stroke: rgb(145, 145, 145); stroke-miterlimit: 10; transform-origin: 125.58px 248.87px;" id="eluldapa18jek" class="animable"></path><polyline points="134.12 216.24 140.12 201.58 151.29 201.58" style="fill: none; stroke: rgb(145, 145, 145); stroke-miterlimit: 10; transform-origin: 142.705px 208.91px;" id="elezuksfoxa2r" class="animable"></polyline><line x1="152.62" y1="188.73" x2="161.27" y2="188.73" style="fill: none; stroke: rgb(145, 145, 145); stroke-miterlimit: 10; transform-origin: 156.945px 188.73px;" id="el6buysk2s50t" class="animable"></line><line x1="152.62" y1="192.39" x2="161.27" y2="192.39" style="fill: none; stroke: rgb(145, 145, 145); stroke-miterlimit: 10; transform-origin: 156.945px 192.39px;" id="el8zh2q4bxk57" class="animable"></line><line x1="159.27" y1="195.05" x2="154.28" y2="200.37" style="fill: none; stroke: rgb(145, 145, 145); stroke-miterlimit: 10; transform-origin: 156.775px 197.71px;" id="elczfnq2w41e" class="animable"></line><line x1="159.27" y1="201.7" x2="154.28" y2="207.03" style="fill: none; stroke: rgb(145, 145, 145); stroke-miterlimit: 10; transform-origin: 156.775px 204.365px;" id="elv5yeqr9k5q" class="animable"></line><path d="M159.68,175.43A2.66,2.66,0,1,0,157,178.1,2.66,2.66,0,0,0,159.68,175.43Z" style="fill: none; stroke: rgb(145, 145, 145); stroke-miterlimit: 10; transform-origin: 157.02px 175.44px;" id="el5b5c4uxutpe" class="animable"></path><path d="M158.18,175.43a1.16,1.16,0,1,0-1.16,1.16A1.15,1.15,0,0,0,158.18,175.43Z" style="fill: none; stroke: rgb(145, 145, 145); stroke-miterlimit: 10; transform-origin: 157.02px 175.43px;" id="elj2ot942nzgd" class="animable"></path><path d="M159.68,182.41a2.66,2.66,0,1,0-2.66,2.66A2.67,2.67,0,0,0,159.68,182.41Z" style="fill: none; stroke: rgb(145, 145, 145); stroke-miterlimit: 10; transform-origin: 157.02px 182.41px;" id="elsbh5oj8mxne" class="animable"></path><path d="M158.18,182.41a1.16,1.16,0,1,0-1.16,1.15A1.16,1.16,0,0,0,158.18,182.41Z" style="fill: none; stroke: rgb(145, 145, 145); stroke-miterlimit: 10; transform-origin: 157.02px 182.4px;" id="el67k8gps50bw" class="animable"></path><path d="M159.68,212a2.66,2.66,0,1,0-2.66,2.66A2.66,2.66,0,0,0,159.68,212Z" style="fill: none; stroke: rgb(145, 145, 145); stroke-miterlimit: 10; transform-origin: 157.02px 212px;" id="elth3bgwwo5r" class="animable"></path><path d="M158.18,212a1.16,1.16,0,1,0-2.31,0,1.16,1.16,0,0,0,2.31,0Z" style="fill: none; stroke: rgb(145, 145, 145); stroke-miterlimit: 10; transform-origin: 157.025px 211.892px;" id="el5vrt4b7os3k" class="animable"></path><path d="M159.68,218.94A2.66,2.66,0,1,0,157,221.6,2.66,2.66,0,0,0,159.68,218.94Z" style="fill: none; stroke: rgb(145, 145, 145); stroke-miterlimit: 10; transform-origin: 157.02px 218.94px;" id="el2rbvs02g6qv" class="animable"></path><path d="M158.18,218.94A1.16,1.16,0,1,0,157,220.1,1.16,1.16,0,0,0,158.18,218.94Z" style="fill: none; stroke: rgb(145, 145, 145); stroke-miterlimit: 10; transform-origin: 157.02px 218.94px;" id="el6xgq238fb8l" class="animable"></path><g id="ell3fcm6w0p5"><circle cx="381.14" cy="193.66" r="57.13" style="fill: none; stroke: rgb(145, 145, 145); stroke-miterlimit: 10; opacity: 0.18; transform-origin: 381.14px 193.66px;" class="animable"></circle></g><polygon points="379.09 167.21 384.51 169.65 386 172.09 388.44 173.04 388.72 175.62 387.77 177.11 385.87 177.52 381.8 175.89 381.8 175.35 384.11 174.4 383.29 171.55 379.63 170.19 378 168.03 379.09 167.21" style="fill: none; stroke: rgb(145, 145, 145); stroke-miterlimit: 10; transform-origin: 383.36px 172.365px;" id="el1j4siwt7ris" class="animable"></polygon><path d="M413.26,229.86l-4.34-1.76-5.29-1.9h-4.2l-3.93-.82-4.34,1-2.44.14h-1.5l-2.84,1.63-2.71,1.08-3.67-2.3.95-3.8-2.3-1h-2.71l-.41-1.22.27-2.44-.95-1.36-1.9.27-.54,1.36-2.3.13-2-2.44-.81-3.25,2-3.8,3.93.27,1.09.95h1.63l2-1.22,1.76.55,2.44,4.2.95-.14-.27-3.12-.81-1.62.27-2.58,5-2.17.67-5,2.17-1.76,1.77-3.12,1.35-.27,3.12-2,.14-1.09-2.17.14-.41-1.09h-1.49l-2.31.55,1.09-1.77,4.74-1.35,1.09-1.22,1.9,3,1.22,1.22,1.9-.54-.82-1.77-2.84-2-3.26-3.66-3.39-2.31-3.25-.54-1.63-1.63-2.17-.54-.27.54-.27,3.94.54,1.35-1.22,4.34-2.71-2.17.4-1.9-2.84-1.35-1.22-1.49.67-3.39,3.94-2.85.27-3.26-1.49.14-.95-1.22-.41-2-.95-.14-.54,2.17-1.49.27-.68-4.74-1.09-.68-1.89-.82-2.17,1.09,2.71,2.57.54,2.31-4.88-3.66L363.36,163l-.27-3.66-3.53-1.09L356.85,160a21.17,21.17,0,0,1-2,1.09,22.86,22.86,0,0,1-3.26.54L351,164l-3.12.13.27,1.49,5,.82,2.58,2.85V174l-1.5,4.2.28,4.48-3.8,6.64-.81,9.9,1.22,5.7,1.76,4.34,2,.27-.68-2.17-1.08-1.63-.68-3,1.22-.27,1.9,4.88,1.36,4.34v3.52l2.57,3.12,4.61,3.39,7.05,1.9,2.17,2,1.63,2.17,2.44,1.5,3,.81,3-.14s-.14,1.36-.14,2-1.9,3-1.9,3l-1.49,2.71,1.09,3,3,1.22,4.2,4.34,1.9.81v2l.24.95a56.9,56.9,0,0,0,28.44-13.39l.07-1,3.66-6.65-1.76-1.22Z" style="fill: none; stroke: rgb(145, 145, 145); stroke-miterlimit: 10; transform-origin: 385.17px 204.115px;" id="elwgtjzseihb" class="animable"></path><path d="M427.36,176.3l-1.49-2.58-1.9-3-.54-4.07,2.44.41.14-1.36-1.77-.14,1.5-.67,1.62-.95V162.6l-1.62-2.17-.35-2.92a57.19,57.19,0,0,0-67.06-16.24l3.13,2.21-1.9,2.44-2.57.54-.27,3.67-1.09.4L354.27,152l.14,2.44,2.31.28-1,2.3h2.3l3.93-5,.41-2.17,3.8-.27,1-1.62,3.93-.41.41-2.31,2.84-.13a14.47,14.47,0,0,1,2.44-1.09,16.47,16.47,0,0,1,2.31.68l2,1.63H384l2.44-1.49,3.12.27a3.33,3.33,0,0,0,1.49.54,11.92,11.92,0,0,0,2.71-1l3.94,2.44,1.62,1.22v2l2,.27.68-1.22,1.76.81-.14,1.09-4.07,1.08,2.31,3,4.88,2.72,2,2.71,3,.27.68-1.36,1.08-.27L410,156.77l-2.17-.27,1.76-.54L408,153.65l2.31-.13,3,1.62.68,3.26,1.49,1.76,1.22,3.93,3,2.17v4.48l3.12,2-.13,1.49-.41,1.77.81,2.44.27,1.22,2.31.4,1.08-2.3Z" style="fill: none; stroke: rgb(145, 145, 145); stroke-miterlimit: 10; transform-origin: 390.815px 158.296px;" id="elep89ajydr94" class="animable"></path><path d="M429.13,162.64v.77l-.68,2.17.4,1.9,1.5.54v2.58l-1.63-.68-.41,7.33-1.63,3,1.09,3.8,1.76,1.62V193l1.76,5.69,1.9,4.34,3.12.81,1.09-2.71.44-.34a57.51,57.51,0,0,0,.44-7.11A56.9,56.9,0,0,0,429.13,162.64Z" style="fill: none; stroke: rgb(145, 145, 145); stroke-miterlimit: 10; transform-origin: 432.48px 183.24px;" id="elxgtd6vrh8n" class="animable"></path><polygon points="397.8 161.79 388.85 157.85 384.92 157.99 383.97 160.57 382.34 158.8 379.36 159.48 379.09 163.96 381.53 165.72 383.29 163.14 385.33 165.18 389.53 168.84 390.34 172.77 393.87 177.25 399.56 176.3 399.43 174.26 398.21 171.96 397.94 166.53 399.29 164.23 397.8 161.79" style="fill: none; stroke: rgb(145, 145, 145); stroke-miterlimit: 10; transform-origin: 389.325px 167.55px;" id="elpunvtehki9b" class="animable"></polygon><polygon points="405.12 164.77 403.09 164.23 401.33 165.72 402.28 169.65 404.04 169.65 405.12 164.77" style="fill: none; stroke: rgb(145, 145, 145); stroke-miterlimit: 10; transform-origin: 403.225px 166.94px;" id="elbxpnj8xe84" class="animable"></polygon><polygon points="417.74 167.35 413.12 164.91 412.18 163.28 411.09 163.69 412.04 166.4 412.85 169.92 414.89 170.74 415.29 170.19 414.07 168.16 417.6 169.52 417.74 167.35" style="fill: none; stroke: rgb(145, 145, 145); stroke-miterlimit: 10; transform-origin: 414.415px 167.01px;" id="el2w4oeii3pu" class="animable"></polygon><polygon points="378.14 216.3 377.6 216.84 381.67 218.06 383.29 219.96 385.87 220.23 386.82 218.74 383.7 218.2 378.14 216.3" style="fill: none; stroke: rgb(145, 145, 145); stroke-miterlimit: 10; transform-origin: 382.21px 218.265px;" id="eljk5cmsbnp1s" class="animable"></polygon><polygon points="390.21 218.88 387.36 219.69 387.77 220.77 391.29 220.77 391.97 219.69 390.75 219.82 390.21 218.88" style="fill: none; stroke: rgb(145, 145, 145); stroke-miterlimit: 10; transform-origin: 389.665px 219.825px;" id="elevp81hj6hk9" class="animable"></polygon><circle cx="381.14" cy="193.66" r="57.13" style="fill: none; stroke: rgb(145, 145, 145); stroke-miterlimit: 10; transform-origin: 381.14px 193.66px;" id="el28neh1zm0ix" class="animable"></circle><g id="el62z5jlxz3me"><circle cx="288.43" cy="161.38" r="19.06" style="fill: none; stroke: rgb(145, 145, 145); stroke-miterlimit: 10; transform-origin: 288.43px 161.38px; transform: rotate(-45deg);" class="animable"></circle></g><path d="M424.33,155.6c25.2,12.21,40.58,29.53,37.82,45.92-4.14,24.64-47.7,37.85-97.29,29.51S278.43,196,282.58,171.32a23.57,23.57,0,0,1,2.85-7.87" style="fill: none; stroke: rgb(145, 145, 145); stroke-miterlimit: 10; transform-origin: 372.365px 194.565px;" id="elb8xa68vdgid" class="animable"></path><path d="M302,149c14.72-7.46,36.4-11,60.65-9.26" style="fill: none; stroke: rgb(145, 145, 145); stroke-miterlimit: 10; transform-origin: 332.325px 144.152px;" id="elkpy9rtmott" class="animable"></path><circle cx="252.79" cy="136.05" r="2.66" style="fill: none; stroke: rgb(145, 145, 145); stroke-miterlimit: 10; transform-origin: 252.79px 136.05px;" id="el3bgdywyhi7g" class="animable"></circle><circle cx="252.79" cy="136.05" r="1.16" style="fill: none; stroke: rgb(145, 145, 145); stroke-miterlimit: 10; transform-origin: 252.79px 136.05px;" id="el4174rc1yeqh" class="animable"></circle><circle cx="252.79" cy="156.58" r="2.66" style="fill: none; stroke: rgb(145, 145, 145); stroke-miterlimit: 10; transform-origin: 252.79px 156.58px;" id="elvt8meswnmm" class="animable"></circle><circle cx="252.79" cy="156.58" r="1.16" style="fill: none; stroke: rgb(145, 145, 145); stroke-miterlimit: 10; transform-origin: 252.79px 156.58px;" id="ela17scfiskmo" class="animable"></circle><path d="M255.45,163.55a2.67,2.67,0,1,0-2.66,2.66A2.66,2.66,0,0,0,255.45,163.55Z" style="fill: none; stroke: rgb(145, 145, 145); stroke-miterlimit: 10; transform-origin: 252.78px 163.54px;" id="eliay3mru7uhh" class="animable"></path><circle cx="252.79" cy="163.55" r="1.16" style="fill: none; stroke: rgb(145, 145, 145); stroke-miterlimit: 10; transform-origin: 252.79px 163.55px;" id="elpkpmx35armo" class="animable"></circle><circle cx="252.79" cy="143.29" r="2.66" style="fill: none; stroke: rgb(145, 145, 145); stroke-miterlimit: 10; transform-origin: 252.79px 143.29px;" id="elj4w14b1d6l" class="animable"></circle><circle cx="252.79" cy="143.29" r="1.16" style="fill: none; stroke: rgb(145, 145, 145); stroke-miterlimit: 10; transform-origin: 252.79px 143.29px;" id="el5s9k8sdtwxc" class="animable"></circle><line x1="252.79" y1="146.39" x2="252.79" y2="153.74" style="fill: none; stroke: rgb(145, 145, 145); stroke-miterlimit: 10; transform-origin: 252.79px 150.065px;" id="ell46at8x5qje" class="animable"></line><polyline points="253.28 150.74 261.79 150.74 270.29 153.24" style="fill: none; stroke: rgb(145, 145, 145); stroke-miterlimit: 10; transform-origin: 261.785px 151.99px;" id="elkaaoj5ynymo" class="animable"></polyline><line x1="378.8" y1="278.91" x2="387.45" y2="278.91" style="fill: none; stroke: rgb(145, 145, 145); stroke-miterlimit: 10; transform-origin: 383.125px 278.91px;" id="elp55pfqdtubn" class="animable"></line><line x1="378.8" y1="282.57" x2="387.45" y2="282.57" style="fill: none; stroke: rgb(145, 145, 145); stroke-miterlimit: 10; transform-origin: 383.125px 282.57px;" id="ela5gbvkz8hcc" class="animable"></line><line x1="385.46" y1="285.23" x2="380.46" y2="290.56" style="fill: none; stroke: rgb(145, 145, 145); stroke-miterlimit: 10; transform-origin: 382.96px 287.895px;" id="el0jz4e5y80a1g" class="animable"></line><line x1="385.46" y1="291.89" x2="380.46" y2="297.21" style="fill: none; stroke: rgb(145, 145, 145); stroke-miterlimit: 10; transform-origin: 382.96px 294.55px;" id="eltgqrftabl0h" class="animable"></line><path d="M385.87,265.62a2.67,2.67,0,1,0-2.67,2.66A2.67,2.67,0,0,0,385.87,265.62Z" style="fill: none; stroke: rgb(145, 145, 145); stroke-miterlimit: 10; transform-origin: 383.2px 265.61px;" id="elawfajkafaq" class="animable"></path><circle cx="383.2" cy="265.62" r="1.16" style="fill: none; stroke: rgb(145, 145, 145); stroke-miterlimit: 10; transform-origin: 383.2px 265.62px;" id="elqj7ja5mita" class="animable"></circle><path d="M385.87,272.59a2.67,2.67,0,1,0-2.67,2.66A2.67,2.67,0,0,0,385.87,272.59Z" style="fill: none; stroke: rgb(145, 145, 145); stroke-miterlimit: 10; transform-origin: 383.2px 272.58px;" id="el871q8lqw4i8" class="animable"></path><circle cx="383.2" cy="272.59" r="1.16" style="fill: none; stroke: rgb(145, 145, 145); stroke-miterlimit: 10; transform-origin: 383.2px 272.59px;" id="el8dxrp6aeznn" class="animable"></circle><path d="M385.87,302.15a2.67,2.67,0,1,0-2.67,2.66A2.67,2.67,0,0,0,385.87,302.15Z" style="fill: none; stroke: rgb(145, 145, 145); stroke-miterlimit: 10; transform-origin: 383.2px 302.14px;" id="elbo4i697rssu" class="animable"></path><circle cx="383.2" cy="302.15" r="1.16" style="fill: none; stroke: rgb(145, 145, 145); stroke-miterlimit: 10; transform-origin: 383.2px 302.15px;" id="eleohwx5k0ecu" class="animable"></circle><path d="M385.87,309.12a2.67,2.67,0,1,0-2.67,2.67A2.67,2.67,0,0,0,385.87,309.12Z" style="fill: none; stroke: rgb(145, 145, 145); stroke-miterlimit: 10; transform-origin: 383.2px 309.12px;" id="el8p5kybhluov" class="animable"></path><circle cx="383.2" cy="309.12" r="1.16" style="fill: none; stroke: rgb(145, 145, 145); stroke-miterlimit: 10; transform-origin: 383.2px 309.12px;" id="elf92q8tbn10g" class="animable"></circle><polyline points="392.12 274.24 404.12 274.24 398.12 248.24" style="fill: none; stroke: rgb(145, 145, 145); stroke-miterlimit: 10; transform-origin: 398.12px 261.24px;" id="el9ne0lsnh4fh" class="animable"></polyline><rect x="74.43" y="121.97" width="364.62" height="203.67" rx="18.52" style="fill: none; stroke: rgb(145, 145, 145); stroke-miterlimit: 10; transform-origin: 256.74px 223.805px;" id="eli25o32jqvk" class="animable"></rect><line x1="85.67" y1="292.24" x2="107" y2="292.24" style="fill: none; stroke: rgb(145, 145, 145); stroke-miterlimit: 10; transform-origin: 96.335px 292.24px;" id="elfi7i2yt7rdp" class="animable"></line><line x1="85.67" y1="298.91" x2="107" y2="298.91" style="fill: none; stroke: rgb(145, 145, 145); stroke-miterlimit: 10; transform-origin: 96.335px 298.91px;" id="el6di27zkn49a" class="animable"></line><line x1="85.67" y1="305.58" x2="107" y2="305.58" style="fill: none; stroke: rgb(145, 145, 145); stroke-miterlimit: 10; transform-origin: 96.335px 305.58px;" id="elbuingzjc9nj" class="animable"></line><path d="M337.67,131.58H270.33a2,2,0,0,1-2-2h0a2,2,0,0,1,2-2h67.34a2,2,0,0,1,2,2h0A2,2,0,0,1,337.67,131.58Z" style="fill: none; stroke: rgb(145, 145, 145); stroke-miterlimit: 10; transform-origin: 304px 129.58px;" id="elwkdvfkx1nhp" class="animable"></path><path d="M236.33,131.58H169a2,2,0,0,1-2-2h0a2,2,0,0,1,2-2h67.33a2,2,0,0,1,2,2h0A2,2,0,0,1,236.33,131.58Z" style="fill: none; stroke: rgb(145, 145, 145); stroke-miterlimit: 10; transform-origin: 202.665px 129.58px;" id="ele29yt308c0p" class="animable"></path><path d="M158.33,131.58H91a2,2,0,0,1-2-2h0a2,2,0,0,1,2-2h67.33a2,2,0,0,1,2,2h0A2,2,0,0,1,158.33,131.58Z" style="fill: none; stroke: rgb(145, 145, 145); stroke-miterlimit: 10; transform-origin: 124.665px 129.58px;" id="el4bpcx4xycdc" class="animable"></path><path d="M417.67,131.58H350.33a2,2,0,0,1-2-2h0a2,2,0,0,1,2-2h67.34a2,2,0,0,1,2,2h0A2,2,0,0,1,417.67,131.58Z" style="fill: none; stroke: rgb(145, 145, 145); stroke-miterlimit: 10; transform-origin: 384px 129.58px;" id="el02itzfb6300f" class="animable"></path><path d="M417.67,319.58H350.33a2,2,0,0,1-2-2h0a2,2,0,0,1,2-2h67.34a2,2,0,0,1,2,2h0A2,2,0,0,1,417.67,319.58Z" style="fill: none; stroke: rgb(145, 145, 145); stroke-miterlimit: 10; transform-origin: 384px 317.58px;" id="elm4nv09z27fo" class="animable"></path><path d="M155,319.58H87.67a2,2,0,0,1-2-2h0a2,2,0,0,1,2-2H155a2,2,0,0,1,2,2h0A2,2,0,0,1,155,319.58Z" style="fill: none; stroke: rgb(145, 145, 145); stroke-miterlimit: 10; transform-origin: 121.335px 317.58px;" id="elzqjxo3obuuo" class="animable"></path><rect x="89.67" y="144.24" width="14.67" height="17.33" style="fill: none; stroke: rgb(145, 145, 145); stroke-miterlimit: 10; transform-origin: 97.005px 152.905px;" id="eltggilloxwq" class="animable"></rect><rect x="109.67" y="144.24" width="14.67" height="17.33" style="fill: none; stroke: rgb(145, 145, 145); stroke-miterlimit: 10; transform-origin: 117.005px 152.905px;" id="elg98lwxe7i6" class="animable"></rect><rect x="129.67" y="152.24" width="7.9" height="9.33" style="fill: none; stroke: rgb(145, 145, 145); stroke-miterlimit: 10; transform-origin: 133.62px 156.905px;" id="eljlnqbblhkc" class="animable"></rect></g><g id="freepik--Controls--inject-5" class="animable" style="transform-origin: 261.65px 400.42px;"><path d="M145,403.13H127.91a5,5,0,0,1-5-5v-4.32a5,5,0,0,1,5-5h39a5,5,0,0,0,5-5v-2.62a5,5,0,0,1,5-5H343.48a5,5,0,0,1,5,5h0a5,5,0,0,0,5,5h36a5,5,0,0,1,5,5v5.65a5,5,0,0,1-5,5Z" style="fill: rgb(27, 235, 65); stroke: rgb(38, 50, 56); stroke-linecap: round; stroke-linejoin: round; transform-origin: 258.695px 389.66px;" id="eloo1d4zp5uj" class="animable"></path><path d="M204.09,394h-8c-1.29,0-2.33-2.25-2.33-5v-1.32c0-2.77,1-5,2.33-5h18.22c1.29,0,2.33-2.26,2.33-5V375c0-2.77,1.05-5,2.33-5h77.78c1.29,0,2.33,2.25,2.33,5h0c0,2.78,1.05,5,2.33,5h16.81c1.29,0,2.33,2.25,2.33,5v5.65c0,2.79-1.05,5.05-2.34,5Z" style="fill: rgb(27, 235, 65); stroke: rgb(38, 50, 56); stroke-linecap: round; stroke-linejoin: round; transform-origin: 257.155px 382.825px;" id="ely7ktlnbe8mp" class="animable"></path><path d="M445,430.84H78.3l61.25-36a11.59,11.59,0,0,1,5.83-1.58H377.91a11.6,11.6,0,0,1,5.84,1.58Z" style="fill: rgb(27, 235, 65); stroke: rgb(38, 50, 56); stroke-linecap: round; stroke-linejoin: round; transform-origin: 261.65px 412.05px;" id="elbahbkoupfhb" class="animable"></path><path d="M377.53,430.84H145.77L185.4,387.2a22.57,22.57,0,0,1,16.72-7.41H321.17a22.59,22.59,0,0,1,16.73,7.41Z" style="fill: rgb(27, 235, 65); stroke: rgb(38, 50, 56); stroke-linecap: round; stroke-linejoin: round; transform-origin: 261.65px 405.315px;" id="elfza09j4h42t" class="animable"></path><polygon points="370.38 408.61 391.95 408.61 369.99 398.81 370.38 408.61" style="fill: rgb(38, 50, 56); stroke: rgb(38, 50, 56); stroke-linecap: round; stroke-linejoin: round; transform-origin: 380.97px 403.71px;" id="ely0zhyjhtvxr" class="animable"></polygon><polygon points="374.31 415.28 395.48 415.28 398.62 425.86 374.31 415.28" style="fill: rgb(38, 50, 56); stroke: rgb(38, 50, 56); stroke-linecap: round; stroke-linejoin: round; transform-origin: 386.465px 420.57px;" id="el5onnvuqqg7u" class="animable"></polygon><polygon points="151.8 408.61 130.23 408.61 152.19 398.81 151.8 408.61" style="fill: rgb(38, 50, 56); stroke: rgb(38, 50, 56); stroke-linecap: round; stroke-linejoin: round; transform-origin: 141.21px 403.71px;" id="elhteywmkorf" class="animable"></polygon><polygon points="147.88 415.28 126.7 415.28 123.57 425.86 147.88 415.28" style="fill: rgb(38, 50, 56); stroke: rgb(38, 50, 56); stroke-linecap: round; stroke-linejoin: round; transform-origin: 135.725px 420.57px;" id="elz9hgryyrsvp" class="animable"></polygon><path d="M311.32,421.19c0,1.49-2.41,2.69-5.38,2.69s-5.38-1.2-5.38-2.69,2.41-2.69,5.38-2.69S311.32,419.71,311.32,421.19Z" style="fill: rgb(255, 255, 255); stroke: rgb(38, 50, 56); stroke-linecap: round; stroke-linejoin: round; transform-origin: 305.94px 421.19px;" id="el0cxtmawqiypj" class="animable"></path><path d="M287.56,421.19c0,1.49-2.41,2.69-5.38,2.69s-5.38-1.2-5.38-2.69,2.41-2.69,5.38-2.69S287.56,419.71,287.56,421.19Z" style="fill: rgb(38, 50, 56); stroke: rgb(38, 50, 56); stroke-linecap: round; stroke-linejoin: round; transform-origin: 282.18px 421.19px;" id="el3mmnpya84l9" class="animable"></path><path d="M263.8,421.19c0,1.49-2.41,2.69-5.38,2.69s-5.38-1.2-5.38-2.69,2.41-2.69,5.38-2.69S263.8,419.71,263.8,421.19Z" style="fill: rgb(255, 255, 255); stroke: rgb(38, 50, 56); stroke-linecap: round; stroke-linejoin: round; transform-origin: 258.42px 421.19px;" id="elo3nlewqomz" class="animable"></path><path d="M240,421.19c0,1.49-2.41,2.69-5.38,2.69s-5.38-1.2-5.38-2.69,2.41-2.69,5.38-2.69S240,419.71,240,421.19Z" style="fill: rgb(38, 50, 56); stroke: rgb(38, 50, 56); stroke-linecap: round; stroke-linejoin: round; transform-origin: 234.62px 421.19px;" id="ele1perng4b8" class="animable"></path><path d="M216.28,421.19c0,1.49-2.41,2.69-5.38,2.69s-5.38-1.2-5.38-2.69,2.4-2.69,5.38-2.69S216.28,419.71,216.28,421.19Z" style="fill: rgb(255, 255, 255); stroke: rgb(38, 50, 56); stroke-linecap: round; stroke-linejoin: round; transform-origin: 210.9px 421.19px;" id="el7yveptkvhec" class="animable"></path><path d="M306.33,392.87h-5.17c-2.15,0-4.13-1.05-4.43-2.34h0c-.3-1.26-2.22-2.27-4.31-2.27H228.33c-2.08,0-4,1-4.3,2.27h0c-.3,1.29-2.29,2.34-4.43,2.34h-5.18c-2.14,0-4.22,1.07-4.64,2.41l-1.6,5.05c-.46,1.45,1,2.64,3.3,2.64H217c2.28,0,3.85,1.21,3.49,2.73h0c-.36,1.55,1.25,2.82,3.61,2.82h72.58c2.35,0,4-1.27,3.6-2.82h0c-.35-1.52,1.22-2.73,3.5-2.73h5.51c2.28,0,3.75-1.19,3.3-2.64l-1.6-5.05C310.56,393.94,308.48,392.87,306.33,392.87Z" style="fill: rgb(38, 50, 56); stroke: rgb(38, 50, 56); stroke-linecap: round; stroke-linejoin: round; transform-origin: 260.383px 398.39px;" id="elrfxqexgv8a" class="animable"></path><path d="M328.55,388.72a5,5,0,0,0-4.94-1.83c-1.8.41-2.51,1.89-1.57,3.3A5,5,0,0,0,327,392C328.79,391.61,329.49,390.13,328.55,388.72Z" style="fill: none; stroke: rgb(38, 50, 56); stroke-linecap: round; stroke-linejoin: round; transform-origin: 325.296px 389.448px;" id="el78q32c0nvhh" class="animable"></path><path d="M326.71,389.13a2.17,2.17,0,0,0-2.15-.79c-.78.18-1.08.82-.68,1.44a2.17,2.17,0,0,0,2.15.79C326.81,390.39,327.12,389.75,326.71,389.13Z" style="fill: none; stroke: rgb(38, 50, 56); stroke-linecap: round; stroke-linejoin: round; transform-origin: 325.297px 389.455px;" id="eluhr8uqp11k8" class="animable"></path><path d="M341.59,408.47a5,5,0,0,0-4.95-1.82c-1.8.41-2.5,1.89-1.57,3.3a5,5,0,0,0,4.95,1.82C341.82,411.37,342.52,409.89,341.59,408.47Z" style="fill: none; stroke: rgb(38, 50, 56); stroke-linecap: round; stroke-linejoin: round; transform-origin: 338.33px 409.21px;" id="el9al9m2hk01i" class="animable"></path><path d="M339.75,408.89a2.17,2.17,0,0,0-2.15-.79c-.79.18-1.09.82-.68,1.43a2.16,2.16,0,0,0,2.15.8C339.85,410.15,340.15,409.51,339.75,408.89Z" style="fill: none; stroke: rgb(38, 50, 56); stroke-linecap: round; stroke-linejoin: round; transform-origin: 338.332px 409.215px;" id="ely2q6to10s48" class="animable"></path><path d="M346,415.18a5,5,0,0,0-4.95-1.82c-1.8.41-2.5,1.89-1.57,3.3a5,5,0,0,0,4.95,1.82C346.25,418.08,347,416.6,346,415.18Z" style="fill: none; stroke: rgb(38, 50, 56); stroke-linecap: round; stroke-linejoin: round; transform-origin: 342.757px 415.92px;" id="eloifni4hvm2f" class="animable"></path><path d="M344.17,415.6a2.16,2.16,0,0,0-2.15-.79c-.78.18-1.08.82-.68,1.43a2.18,2.18,0,0,0,2.15.8C344.27,416.86,344.58,416.22,344.17,415.6Z" style="fill: none; stroke: rgb(38, 50, 56); stroke-linecap: round; stroke-linejoin: round; transform-origin: 342.757px 415.923px;" id="elknt4t47k9q" class="animable"></path><path d="M333.15,395.68a5,5,0,0,0-4.95-1.82c-1.8.4-2.5,1.88-1.57,3.3a5,5,0,0,0,4.95,1.82C333.38,398.57,334.08,397.1,333.15,395.68Z" style="fill: none; stroke: rgb(38, 50, 56); stroke-linecap: round; stroke-linejoin: round; transform-origin: 329.89px 396.42px;" id="elvauxxtb6d3" class="animable"></path><path d="M331.31,396.1a2.15,2.15,0,0,0-2.15-.79c-.79.17-1.09.82-.69,1.43a2.18,2.18,0,0,0,2.16.79C331.41,397.35,331.71,396.71,331.31,396.1Z" style="fill: none; stroke: rgb(38, 50, 56); stroke-linecap: round; stroke-linejoin: round; transform-origin: 329.89px 396.419px;" id="el4fj7ns1kfys" class="animable"></path><line x1="331.86" y1="399.4" x2="336.53" y2="406.48" style="fill: none; stroke: rgb(38, 50, 56); stroke-linecap: round; stroke-linejoin: round; transform-origin: 334.195px 402.94px;" id="el438k6yugsos" class="animable"></line><g id="el3waaa1wdt5u"><ellipse cx="239.42" cy="398.51" rx="3.58" ry="2.68" style="fill: none; stroke: rgb(255, 255, 255); stroke-linecap: round; stroke-linejoin: round; transform-origin: 239.42px 398.51px; transform: rotate(-5.76deg);" class="animable"></ellipse></g><path d="M239.51,397.34a1.53,1.53,0,0,0-1.63,1.17c0,.64.6,1.17,1.45,1.17a1.54,1.54,0,0,0,1.64-1.17C241,397.86,240.37,397.34,239.51,397.34Z" style="fill: none; stroke: rgb(255, 255, 255); stroke-linecap: round; stroke-linejoin: round; transform-origin: 239.425px 398.51px;" id="elmttwmecpiuo" class="animable"></path><g id="elvd2dv9p5tjd"><ellipse cx="266.9" cy="398.5" rx="3.58" ry="2.68" style="fill: none; stroke: rgb(255, 255, 255); stroke-linecap: round; stroke-linejoin: round; transform-origin: 266.9px 398.5px; transform: rotate(-5.76deg);" class="animable"></ellipse></g><path d="M267,397.33a1.54,1.54,0,0,0-1.64,1.17c-.05.65.61,1.17,1.46,1.17a1.53,1.53,0,0,0,1.64-1.17C268.5,397.85,267.85,397.33,267,397.33Z" style="fill: none; stroke: rgb(255, 255, 255); stroke-linecap: round; stroke-linejoin: round; transform-origin: 266.91px 398.5px;" id="eltkn45k2zobo" class="animable"></path><path d="M276.44,395.81c-2,0-3.65,1.2-3.77,2.69s1.39,2.69,3.36,2.69,3.65-1.21,3.77-2.69S278.41,395.8,276.44,395.81Z" style="fill: none; stroke: rgb(255, 255, 255); stroke-linecap: round; stroke-linejoin: round; transform-origin: 276.235px 398.5px;" id="el51gporgi824" class="animable"></path><path d="M276.32,397.33a1.53,1.53,0,0,0-1.63,1.17c-.05.64.6,1.17,1.45,1.17a1.54,1.54,0,0,0,1.64-1.17C277.83,397.85,277.18,397.33,276.32,397.33Z" style="fill: none; stroke: rgb(255, 255, 255); stroke-linecap: round; stroke-linejoin: round; transform-origin: 276.235px 398.5px;" id="elx7cxihkamrg" class="animable"></path><path d="M249.32,395.81c-2,0-3.66,1.21-3.77,2.7s1.38,2.69,3.35,2.69,3.66-1.21,3.77-2.7S251.28,395.81,249.32,395.81Z" style="fill: none; stroke: rgb(255, 255, 255); stroke-linecap: round; stroke-linejoin: round; transform-origin: 249.11px 398.505px;" id="eleu7eld880dt" class="animable"></path><path d="M249.2,397.33a1.54,1.54,0,0,0-1.64,1.17c-.05.65.6,1.17,1.46,1.17a1.54,1.54,0,0,0,1.64-1.17C250.71,397.86,250.05,397.33,249.2,397.33Z" style="fill: none; stroke: rgb(255, 255, 255); stroke-linecap: round; stroke-linejoin: round; transform-origin: 249.11px 398.5px;" id="elaboenhgh5h9" class="animable"></path><line x1="253.26" y1="398.5" x2="263.11" y2="398.5" style="fill: none; stroke: rgb(255, 255, 255); stroke-linecap: round; stroke-linejoin: round; transform-origin: 258.185px 398.5px;" id="ellagub7amnuj" class="animable"></line><g id="elub20mv0vp9"><ellipse cx="198.65" cy="389.46" rx="3.74" ry="2.56" style="fill: none; stroke: rgb(38, 50, 56); stroke-linecap: round; stroke-linejoin: round; transform-origin: 198.65px 389.46px; transform: rotate(-15.58deg);" class="animable"></ellipse></g><g id="eldxikwpcxdca"><ellipse cx="198.65" cy="389.46" rx="1.63" ry="1.11" style="fill: none; stroke: rgb(38, 50, 56); stroke-linecap: round; stroke-linejoin: round; transform-origin: 198.65px 389.46px; transform: rotate(-15.58deg);" class="animable"></ellipse></g><path d="M182.35,408.47a5,5,0,0,1,5-1.82c1.8.41,2.5,1.89,1.57,3.3a5,5,0,0,1-5,1.82C182.12,411.37,181.42,409.89,182.35,408.47Z" style="fill: none; stroke: rgb(38, 50, 56); stroke-linecap: round; stroke-linejoin: round; transform-origin: 185.635px 409.21px;" id="elric03aj8e2f" class="animable"></path><path d="M184.2,408.89a2.16,2.16,0,0,1,2.15-.79c.78.18,1.08.82.68,1.43a2.18,2.18,0,0,1-2.15.8C184.09,410.15,183.79,409.51,184.2,408.89Z" style="fill: none; stroke: rgb(38, 50, 56); stroke-linecap: round; stroke-linejoin: round; transform-origin: 185.612px 409.213px;" id="ell1w4vhqchcm" class="animable"></path><path d="M177.93,415.18a5,5,0,0,1,4.94-1.82c1.8.41,2.51,1.89,1.57,3.3a5,5,0,0,1-4.95,1.82C177.69,418.08,177,416.6,177.93,415.18Z" style="fill: none; stroke: rgb(38, 50, 56); stroke-linecap: round; stroke-linejoin: round; transform-origin: 181.186px 415.921px;" id="elivyi9zr767" class="animable"></path><path d="M179.77,415.6a2.17,2.17,0,0,1,2.15-.79c.78.18,1.09.82.68,1.43a2.18,2.18,0,0,1-2.15.8C179.67,416.86,179.36,416.22,179.77,415.6Z" style="fill: none; stroke: rgb(38, 50, 56); stroke-linecap: round; stroke-linejoin: round; transform-origin: 181.185px 415.924px;" id="el9xu04e0a227" class="animable"></path><path d="M190.79,395.68a5,5,0,0,1,5-1.82c1.8.4,2.5,1.88,1.57,3.3a5,5,0,0,1-4.95,1.82C190.56,398.57,189.86,397.1,190.79,395.68Z" style="fill: none; stroke: rgb(38, 50, 56); stroke-linecap: round; stroke-linejoin: round; transform-origin: 194.076px 396.415px;" id="ellxk26tf0jg" class="animable"></path><path d="M192.64,396.1a2.14,2.14,0,0,1,2.15-.79.9.9,0,0,1,.68,1.43,2.17,2.17,0,0,1-2.15.79C192.53,397.35,192.23,396.71,192.64,396.1Z" style="fill: none; stroke: rgb(38, 50, 56); stroke-linecap: round; stroke-linejoin: round; transform-origin: 194.05px 396.418px;" id="elxibh5etknoq" class="animable"></path><line x1="192.08" y1="399.4" x2="187.41" y2="406.48" style="fill: none; stroke: rgb(38, 50, 56); stroke-linecap: round; stroke-linejoin: round; transform-origin: 189.745px 402.94px;" id="elcsunh52y8ei" class="animable"></line></g><defs>     <filter id="active" height="200%">         <feMorphology in="SourceAlpha" result="DILATED" operator="dilate" radius="2"></feMorphology>                <feFlood flood-color="#32DFEC" flood-opacity="1" result="PINK"></feFlood>        <feComposite in="PINK" in2="DILATED" operator="in" result="OUTLINE"></feComposite>        <feMerge>            <feMergeNode in="OUTLINE"></feMergeNode>            <feMergeNode in="SourceGraphic"></feMergeNode>        </feMerge>    </filter>    <filter id="hover" height="200%">        <feMorphology in="SourceAlpha" result="DILATED" operator="dilate" radius="2"></feMorphology>                <feFlood flood-color="#ff0000" flood-opacity="0.5" result="PINK"></feFlood>        <feComposite in="PINK" in2="DILATED" operator="in" result="OUTLINE"></feComposite>        <feMerge>            <feMergeNode in="OUTLINE"></feMergeNode>            <feMergeNode in="SourceGraphic"></feMergeNode>        </feMerge>            <feColorMatrix type="matrix" values="0   0   0   0   0                0   1   0   0   0                0   0   0   0   0                0   0   0   1   0 "></feColorMatrix>    </filter></defs><defs><clipPath id="freepik--clip-path--inject-5"><polygon points="417.74 167.35 413.12 164.91 412.18 163.28 411.09 163.69 412.04 166.4 412.85 169.92 414.89 170.74 415.29 170.19 414.07 168.16 417.6 169.52 417.74 167.35" style="fill:none;stroke:#919191;stroke-miterlimit:10;clip-path:url(#freepik--clip-path-7--inject-5)"></polygon></clipPath><clipPath id="freepik--clip-path-2--inject-5"><polygon points="379.09 167.21 384.51 169.65 386 172.09 388.44 173.04 388.72 175.62 387.77 177.11 385.87 177.52 381.8 175.89 381.8 175.35 384.11 174.4 383.29 171.55 379.63 170.19 378 168.03 379.09 167.21" style="fill:none;stroke:#919191;stroke-miterlimit:10"></polygon></clipPath><clipPath id="freepik--clip-path-3--inject-5"><path d="M413.26,229.86l-4.34-1.76-5.29-1.9h-4.2l-3.93-.82-4.34,1-2.44.14h-1.5l-2.84,1.63-2.71,1.08-3.67-2.3.95-3.8-2.3-1h-2.71l-.41-1.22.27-2.44-.95-1.36-1.9.27-.54,1.36-2.3.13-2-2.44-.81-3.25,2-3.8,3.93.27,1.09.95h1.63l2-1.22,1.76.55,2.44,4.2.95-.14-.27-3.12-.81-1.62.27-2.58,5-2.17.67-5,2.17-1.76,1.77-3.12,1.35-.27,3.12-2,.14-1.09-2.17.14-.41-1.09h-1.49l-2.31.55,1.09-1.77,4.74-1.35,1.09-1.22,1.9,3,1.22,1.22,1.9-.54-.82-1.77-2.84-2-3.26-3.66-3.39-2.31-3.25-.54-1.63-1.63-2.17-.54-.27.54-.27,3.94.54,1.35-1.22,4.34-2.71-2.17.4-1.9-2.84-1.35-1.22-1.49.67-3.39,3.94-2.85.27-3.26-1.49.14-.95-1.22-.41-2-.95-.14-.54,2.17-1.49.27-.68-4.74-1.09-.68-1.89-.82-2.17,1.09,2.71,2.57.54,2.31-4.88-3.66L363.36,163l-.27-3.66-3.53-1.09L356.85,160a21.17,21.17,0,0,1-2,1.09,22.86,22.86,0,0,1-3.26.54L351,164l-3.12.13.27,1.49,5,.82,2.58,2.85V174l-1.5,4.2.28,4.48-3.8,6.64-.81,9.9,1.22,5.7,1.76,4.34,2,.27-.68-2.17-1.08-1.63-.68-3,1.22-.27,1.9,4.88,1.36,4.34v3.52l2.57,3.12,4.61,3.39,7.05,1.9,2.17,2,1.63,2.17,2.44,1.5,3,.81,3-.14s-.14,1.36-.14,2-1.9,3-1.9,3l-1.49,2.71,1.09,3,3,1.22,4.2,4.34,1.9.81v2l.24.95a56.9,56.9,0,0,0,28.44-13.39l.07-1,3.66-6.65-1.76-1.22Z" style="fill:none;stroke:#919191;stroke-miterlimit:10;clip-path:url(#freepik--clip-path-2--inject-5)"></path></clipPath><clipPath id="freepik--clip-path-4--inject-5"><path d="M427.36,176.3l-1.49-2.58-1.9-3-.54-4.07,2.44.41.14-1.36-1.77-.14,1.5-.67,1.62-.95V162.6l-1.62-2.17-.35-2.92a57.19,57.19,0,0,0-67.06-16.24l3.13,2.21-1.9,2.44-2.57.54-.27,3.67-1.09.4L354.27,152l.14,2.44,2.31.28-1,2.3h2.3l3.93-5,.41-2.17,3.8-.27,1-1.62,3.93-.41.41-2.31,2.84-.13a14.47,14.47,0,0,1,2.44-1.09,16.47,16.47,0,0,1,2.31.68l2,1.63H384l2.44-1.49,3.12.27a3.33,3.33,0,0,0,1.49.54,11.92,11.92,0,0,0,2.71-1l3.94,2.44,1.62,1.22v2l2,.27.68-1.22,1.76.81-.14,1.09-4.07,1.08,2.31,3,4.88,2.72,2,2.71,3,.27.68-1.36,1.08-.27L410,156.77l-2.17-.27,1.76-.54L408,153.65l2.31-.13,3,1.62.68,3.26,1.49,1.76,1.22,3.93,3,2.17v4.48l3.12,2-.13,1.49-.41,1.77.81,2.44.27,1.22,2.31.4,1.08-2.3Z" style="fill:none;stroke:#919191;stroke-miterlimit:10;clip-path:url(#freepik--clip-path-3--inject-5)"></path></clipPath><clipPath id="freepik--clip-path-5--inject-5"><path d="M429.13,162.64v.77l-.68,2.17.4,1.9,1.5.54v2.58l-1.63-.68-.41,7.33-1.63,3,1.09,3.8,1.76,1.62V193l1.76,5.69,1.9,4.34,3.12.81,1.09-2.71.44-.34a57.51,57.51,0,0,0,.44-7.11A56.9,56.9,0,0,0,429.13,162.64Z" style="fill:none;stroke:#919191;stroke-miterlimit:10;clip-path:url(#freepik--clip-path-4--inject-5)"></path></clipPath><clipPath id="freepik--clip-path-6--inject-5"><polygon points="397.8 161.79 388.85 157.85 384.92 157.99 383.97 160.57 382.34 158.8 379.36 159.48 379.09 163.96 381.53 165.72 383.29 163.14 385.33 165.18 389.53 168.84 390.34 172.77 393.87 177.25 399.56 176.3 399.43 174.26 398.21 171.96 397.94 166.53 399.29 164.23 397.8 161.79" style="fill:none;stroke:#919191;stroke-miterlimit:10;clip-path:url(#freepik--clip-path-5--inject-5)"></polygon></clipPath><clipPath id="freepik--clip-path-7--inject-5"><polygon points="405.12 164.77 403.09 164.23 401.33 165.72 402.28 169.65 404.04 169.65 405.12 164.77" style="fill:none;stroke:#919191;stroke-miterlimit:10;clip-path:url(#freepik--clip-path-6--inject-5)"></polygon></clipPath><clipPath id="freepik--clip-path-8--inject-5"><path d="M287.59,265c-14.44-7-22-11.65-22-11.65h-9.35s-7.55,4.6-22,11.65c-.85.41-1.67.8-2.49,1.16l25.32,24.74a6.87,6.87,0,0,0,10-.42l21.57-25Z" style="fill:#fff;stroke:#263238;stroke-linecap:round;stroke-linejoin:round"></path></clipPath><clipPath id="freepik--clip-path-9--inject-5"><path d="M305.81,294.83c-3.29,3.45-4.6,11.32-10.34,13.95s-24.62,2.13-24.62,2.13-35.77,1.48-41.85-1.31-8.86-13.79-12.47-15.43-6.07,1.48-6.07,4.27-3.12,25.44-3.12,25.44,4.26,3.06,7.19,5.06l2.66-17.86s2,11.65,6.24,18.21a51.31,51.31,0,0,0,10.5,11.33v21.66h54V340.62a51.31,51.31,0,0,0,10.5-11.33c4.27-6.56,6.24-18.21,6.24-18.21l2.88-3.71c1.2,1.69,3.13,4.34,6.14,8.3a86.28,86.28,0,0,0,8.46,9.3l4.67-5.69S315.33,303.53,313,299.75,309.09,291.38,305.81,294.83Z" style="fill:#fff;stroke:#263238;stroke-linecap:round;stroke-linejoin:round"></path></clipPath><clipPath id="freepik--clip-path-10--inject-5"><path d="M244.92,221.47a27.71,27.71,0,0,1-14.44-4.76c-6.73-4.75-4.27-27.73,3.28-35.44s21-11.82,33.48-8.21,17.89,18.05,18.87,21.34,2.79,4.1,2.47,6.23a14.22,14.22,0,0,1-1.15,3.78s.16,10.66-1,13.29-1.64,2.79-2.95,6.07-2,10.34-3.12,14.93-2.63,6.73-9,6.9-10,.82-14.27-7.06S252,223.44,244.92,221.47Z" style="fill:#ccc;stroke:#263238;stroke-linecap:round;stroke-linejoin:round"></path></clipPath></defs></svg>